<svg xmlns="http://www.w3.org/2000/svg" viewBox="0 0 24 24" id="telegram"><path d="M21 2H3a1 1 0 0 0-1 1v18a1 1 0 0 0 1 1h18a1 1 0 0 0 1-1V3a1 1 0 0 0-1-1Zm-4.723 9.855c-.346 2.168-.722 4.538-.722 4.538s-.058.665-.549.78a2.369 2.369 0 0 1-1.445-.52c-.116-.087-2.168-1.387-2.919-2.023a.547.547 0 0 1 .029-.925 111.39 111.39 0 0 0 3.034-2.89c.347-.347.694-1.156-.751-.173-2.052 1.416-4.075 2.745-4.075 2.745a1.7 1.7 0 0 1-1.33.029c-.867-.26-1.878-.607-1.878-.607s-.694-.433.491-.9c0 0 5-2.052 6.734-2.774.665-.289 2.919-1.214 2.919-1.214s1.041-.405.954.578c-.029.409-.26 1.825-.492 3.356Z"></path></svg>